<?xml version="1.0" encoding="UTF-8" standalone="no"?>
<!DOCTYPE svg PUBLIC "-//W3C//DTD SVG 1.0//EN"
"http://www.w3.org/TR/2001/REC-SVG-20010904/DTD/svg10.dtd">
<svg version="1.0" width="600" height="500"
  xmlns="http://www.w3.org/2000/svg"
  xmlns:xlink="http://www.w3.org/1999/xlink">
 <defs>
  <linearGradient id="linearGradient1612"
    x1="41.1948738" y1="616.477173"
    x2="118.931351" y2="527.555115"
    gradientUnits="userSpaceOnUse" gradientTransform="matrix(4.556763,0,0,-4.315033,37.49756,2758.519)">
   <stop offset="0" stop-color="#6a3093" />
   <stop offset="1" stop-color="#3b095e" />
  </linearGradient>
  <linearGradient id="linearGradient5840"
    x1="530.809509" y1="486.631012"
    x2="174.805481" y2="211.22995"
    gradientUnits="userSpaceOnUse" gradientTransform="matrix(0.960006,0,0,0.960006,11.68071,9.787565)">
   <stop offset="0" stop-color="#470b71" />
   <stop offset="1" stop-color="#63288d" />
  </linearGradient>
  <linearGradient id="linearGradient7605"
    x1="187.873566" y1="224.598923"
    x2="581.837463" y2="483.100006"
    gradientUnits="userSpaceOnUse" gradientTransform="matrix(0.960006,0,0,0.960006,11.68071,9.787558)">
   <stop offset="0" stop-color="#9c6fba" />
   <stop offset="1" stop-color="#5a1d84" />
  </linearGradient>
  <linearGradient id="linearGradient7620"
    x1="250.398453" y1="101.536331"
    x2="412.094299" y2="264.54187"
    gradientUnits="userSpaceOnUse" gradientTransform="matrix(0.960006,0,0,0.960006,11.68071,9.787565)">
   <stop offset="0" stop-color="#e6d9ff" />
   <stop offset="1" stop-color="#6a3093" />
  </linearGradient>
  <radialGradient id="radialGradient3179"
    cx="295.471252" cy="186.096344" r="179.550003"
    gradientUnits="userSpaceOnUse" gradientTransform="matrix(1.14292e-8,1.531256,-0.876504,-2.165967e-5,462.7486,-245.0023)">
   <stop offset="0" stop-color="#ffffff" />
   <stop offset="0.5" stop-color="#ffffff" />
   <stop offset="1" stop-color="#d5d5d5" />
  </radialGradient>
 </defs>
 <path
   d="M 287.0439 30.68461 C 287.0439 30.68461 26.88238 457.8871 26.88238 457.8871 C 21.89034 466.0472 21.89034 476.1272 26.88238 484.2873 C 31.77841 492.3513 40.99446 497.4394 50.97852 497.4394 L 571.3016 497.4394 C 581.1896 497.4394 590.4057 492.3513 595.3977 484.2873 C 600.2937 476.1272 600.2937 466.0472 595.3977 457.8871 L 335.2362 30.68461 C 330.2442 22.52457 321.0281 17.43654 311.14 17.43654 C 301.252 17.43654 292.0359 22.52457 287.0439 30.68461 z "
   style="fill-opacity:0.178571;" />
 <path
   d="M 275.5863 23.03565 C 275.5863 23.03565 15.42473 450.2381 15.42473 450.2381 C 10.4327 458.3982 10.4327 468.4783 15.42473 476.6383 C 20.32076 484.7024 29.53681 489.7904 39.52087 489.7904 L 559.8439 489.7904 C 569.732 489.7904 578.948 484.7024 583.9401 476.6383 C 588.8361 468.4783 588.8361 458.3982 583.9401 450.2381 L 323.7785 23.03565 C 318.7865 14.8756 309.5705 9.787568 299.6824 9.787568 C 289.7943 9.787568 280.5783 14.8756 275.5863 23.03565 z "
   style="fill:url(#linearGradient1612);" />
 <path
   d="M 299.6824 31.7717 C 298.0504 31.7717 296.5144 32.6357 295.6504 33.97971 L 165.5696 247.581 L 35.48885 461.1822 C 34.62484 462.5262 34.62484 464.2542 35.48885 465.5982 C 36.35285 466.9422 37.88886 467.8062 39.52087 467.8062 L 559.8439 467.8062 C 561.4759 467.8062 563.0119 466.9422 563.876 465.5982 C 564.74 464.2542 564.74 462.5262 563.876 461.1822 L 303.7144 33.97971 C 302.8504 32.6357 301.3144 31.7717 299.6824 31.7717 z "
   style="fill:url(#linearGradient5840);" />
 <path
   d="M 299.6464 31.7717 C 298.0144 31.7717 296.4783 32.6357 295.6143 33.97971 L 165.5336 247.581 L 35.45283 461.1822 C 34.58882 462.5262 34.58882 464.2542 35.45283 465.5982 C 36.31683 466.9422 37.85284 467.8062 39.48485 467.8062 L 559.8079 467.8062 C 561.4399 467.8062 562.9759 466.9422 563.8399 465.5982 C 564.7039 464.2542 564.7039 462.5262 563.8399 461.1822 L 303.6784 33.97971 C 302.8144 32.6357 301.2784 31.7717 299.6464 31.7717 z "
   style="fill:none;stroke:url(#linearGradient7605);stroke-width:11.52007;stroke-linejoin:round;" />
 <path
   d="M 299.7514 39.46512 C 298.2057 39.54152 296.7649 40.40413 295.9414 41.68514 L 165.8606 255.2864 L 147.7405 285.0466 C 191.8747 311.5396 243.5133 326.8068 298.7014 326.8068 C 354.6732 326.8068 407.0086 311.1293 451.5523 283.9366 L 304.0114 41.68514 C 303.1474 40.34112 301.6234 39.46512 299.9914 39.46512 C 299.9149 39.46512 299.8274 39.46136 299.7514 39.46512 z "
   style="fill:url(#linearGradient7620);stroke-width:10;stroke-linejoin:round;" />
 <path
   d="M 286.4344 145.7244 L 129.2814 403.678 C 126.5934 408.1901 126.5934 413.7581 129.2814 418.1741 C 131.9695 422.6861 137.0575 425.4702 142.5295 425.4702 L 456.7395 425.4702 C 462.2115 425.4702 467.2996 422.6861 469.9876 418.1741 C 472.6756 413.6621 472.6756 408.1901 469.9876 403.678 L 312.9306 145.7244 C 310.2426 141.2124 305.1545 138.4284 299.6825 138.4284 C 294.2105 138.4284 289.1224 141.2124 286.4344 145.7244 z "
   style="fill:url(#radialGradient3179);" />
 <path d="M 329.0625 203.0625 C 327 203.625 324.75 210.125 324.25 212.0625 C 324 213.125 324.3125 214.5625 325.6875 214.3125 C 327.8125 213.875 330 207.3125 330.5 205.4375 C 330.75 204.4375 330.5 202.6875 329.0625 203.0625 M 254.375 215.4375 C 253.6875 218.625 257.375 221.75 259.1875 224.0625 C 259.75 224.8125 261 226.625 262.1875 225.75 C 263.25 224.875 261.6875 223.125 261.1875 222.4375 C 259.375 220 257.375 216.1875 254.375 215.4375 M 281.0625 221.0625 L 286.375 239.75 C 278.1875 241.125 272.5625 248.6875 270.6875 256.4375 C 262.75 254.875 254.125 251.9375 246.0625 251.75 C 248.0625 258.8125 253.6875 266 257.3125 272.4375 C 258.4375 274.375 261.5625 278.0625 261.5 280.375 C 261.5 281.6875 259.5625 282.6875 258.6875 283.4375 C 256.5625 285.25 253.5 287.4375 253.0625 290.4375 C 256.8125 290.125 259.5 284.0625 263.0625 282.4375 L 266.0625 288.4375 C 262.625 290 260.125 293.75 257.9375 296.75 C 257.5 297.375 255 300.3125 257.0625 300.5625 C 258.3125 300.75 259.375 298.5625 260 297.75 C 262.1875 294.8125 264.4375 292 267.375 289.75 C 268.4375 293.3125 273.6875 292.0625 276.6875 292.0625 C 275.6875 304.625 273.875 317.1875 272.75 329.75 C 272.1875 335.6875 272.875 341.6875 267.6875 345.375 C 267 342.375 266.75 337.875 264.5 335.5625 C 260.625 331.5 250.0625 334.5 247.25 338.375 C 243.625 343.5 244.625 352.3125 245.6875 358.0625 C 242.1875 356.375 238.25 352.5625 234.0625 353.4375 C 223.5625 355.625 223.6875 369.25 230.375 375.3125 C 234.6875 379.25 240.5 380.5 246.0625 381.5 C 248.1875 381.875 250.1875 382.9375 252.375 383.0625 C 262.75 383.5625 276.0625 378.75 284.6875 373.3125 C 290.1875 369.875 298.0625 364.25 298.375 357.0625 C 299.875 358.75 300.3125 361.625 301.0625 363.75 C 302.0625 366.8125 305.1875 372.3125 302.8125 375.3125 C 298.625 380.625 287.5 378.6875 281.6875 379.625 C 279.75 380 277.0625 380.0625 275.5625 381.625 C 273 384.25 273.0625 390.25 272.625 393.75 C 272.1875 397.0625 272.0625 399.375 273.8125 402.375 C 276 406.25 280.125 408.125 284.0625 409.6875 C 289 411.6875 294.5 414.25 300.0625 412.75 C 302.3125 412.125 304.25 410.5 306.375 409.5625 C 308.3125 408.6875 310.625 408.25 312.25 406.875 C 314.75 404.6875 312.75 398.125 315.75 396.9375 C 317.3125 396.3125 320.125 397.625 321.6875 398 C 326.5 399.25 331.5 400.8125 336.375 401.5625 C 339.4375 402.0625 343.375 399.375 346.0625 398.0625 C 348 397.0625 351.9375 395.3125 352.625 393 C 353.375 390.1875 352.6875 386.3125 352.6875 383.375 L 338.6875 383.375 C 339 376.9375 348.4375 372.3125 353.6875 369.375 C 352.1875 363.9375 349.6875 358.6875 347.6875 353.375 C 347.0625 351.625 345.3125 348.9375 345.9375 347.0625 C 346.75 344.75 350.625 338.125 353.0625 337.5 C 357.9375 336.1875 363.1875 339.375 366.8125 334.375 C 372.9375 326.0625 372.8125 314.9375 368.9375 305.75 C 367.25 301.75 364.375 297.1875 359.6875 296.5 C 354.125 295.625 351.375 300.8125 347.0625 303.0625 C 345.4375 297.75 341.25 292.0625 335.375 292.0625 C 336.5 289.375 340.125 281.4375 334.375 280.875 C 333.375 280.8125 332.3125 281.1875 331.375 281.4375 C 331.75 280 332.0625 277.6875 330.875 276.625 C 329.125 275.0625 326.875 277.4375 325.125 276.6875 C 323.1875 275.875 323.125 270.875 322.375 269.0625 C 322.0625 268.3125 321.375 267.3125 321.5625 266.4375 C 321.8125 265.5625 322.6875 265.125 323.375 264.75 C 324.9375 268.625 329.0625 267.8125 330.6875 264.4375 C 331.875 261.875 329.625 259.5625 330.1875 257.25 C 330.5625 255.625 332.0625 254.375 332.5625 252.75 C 333.25 250.3125 332.625 246.4375 333.875 244.4375 C 337.375 238.875 345 236.6875 351.0625 236.75 L 351.0625 236.4375 C 344.375 233.6875 338.4375 237.5 333.0625 241.0625 C 332.6875 239.9375 331.25 238.25 331.5625 237.125 C 331.875 235.6875 334.25 234.5 335.375 233.625 C 339.6875 230.375 343.8125 228.0625 349.375 228.4375 L 349.375 228.0625 C 343.5 226.5625 338.6875 227.9375 333.6875 231.25 C 331.875 232.4375 330.25 235.125 328.0625 235.4375 C 329.1875 231.25 328.6875 223.5 323.0625 222.8125 C 319.75 222.375 315.9375 225 313.9375 227.4375 C 313.0625 228.5 312.3125 230.4375 311 231 C 309.125 231.8125 304.5625 229.25 302.375 229.125 C 299.875 228.9375 297.375 229.625 295.0625 230.5625 C 294.0625 230.9375 292.8125 232.0625 291.6875 231.8125 C 290.5 231.625 289.5 229.9375 288.6875 229.0625 C 286.1875 226.5 283.9375 223.1875 281.0625 221.0625 M 302.6875 230.75 L 302.6875 231.0625 C 299.0625 232.1875 297.375 235.8125 297.375 239.4375 C 297.375 241.5625 297.625 243.6875 300.0625 244.0625 C 299.4375 239.625 298.3125 233.6875 304.375 232.5625 C 306.25 232.1875 308.375 232.875 310.375 232.75 C 309.5625 237.125 306 241.125 308.1875 245.75 C 309.6875 249.125 313.875 249.6875 317.0625 248.5625 C 322.25 246.75 325.9375 242.1875 327.6875 237.0625 C 333.875 238.9375 332.375 251 329.5 255.0625 C 321.9375 265.625 311.5 271.6875 299.375 275.1875 C 294.875 276.5625 291.0625 278.8125 286.6875 276.4375 C 288.375 270.6875 292.0625 267.4375 292.0625 261.0625 C 287.875 261.1875 284 266.375 279.75 264.5625 C 276.25 263 277.1875 255.4375 278.3125 252.75 C 281.25 246 287.125 243.875 293.6875 246.4375 L 293.6875 246.75 C 287.6875 246.8125 282.1875 249.75 280.1875 255.75 C 279.75 257.125 278.1875 262.875 280.1875 263.625 C 281.75 264.25 281.375 260.4375 281.375 259.75 C 281.625 254.9375 284.5 250.25 289.375 249.1875 C 291.5 248.75 294.8125 249.625 296.375 248.0625 L 297.6875 248.4375 C 294.8125 244 291.0625 234.375 298.0625 231.375 C 299.5 230.75 301.125 230.75 302.6875 230.75 M 237.875 239.75 C 236.9375 240.3125 237.5625 241.375 238.125 241.9375 C 239.1875 243.0625 243.9375 247.375 245.5625 246.375 C 246.5 245.8125 245.875 244.8125 245.3125 244.25 C 244.25 243.125 239.5 238.75 237.875 239.75 M 294.375 246.75 L 294.0625 247.0625 L 294.375 246.75 M 354.5 252.0625 C 353.75 252.6875 354.375 253.5625 355.0625 253.875 C 356.4375 254.4375 363.125 255.8125 364.125 254.5625 C 364.875 253.625 363.375 252.875 362.6875 252.625 C 360.9375 252.125 356.125 250.875 354.5 252.0625 M 328.6875 258.75 C 329.25 260.75 330.0625 263.375 328.3125 265 C 327 266.25 324.25 265.625 324.625 263.4375 C 324.9375 261.6875 327.5 259.875 328.6875 258.75 M 320.0625 267.4375 C 322.5 271.9375 324.25 277.8125 324.0625 282.75 C 321 282.6875 318.625 280.5 316.0625 279.0625 C 317.9375 274.625 314.375 269.625 320.0625 267.4375 M 225.6875 270.0625 C 227.25 270.5 228.8125 270.4375 230.375 270.4375 L 233.6875 270.4375 C 234.25 270.4375 239.8125 270.4375 237.8125 268.75 C 237.125 268.125 235.5625 268.4375 234.6875 268.4375 C 232.25 268.4375 226.75 267.3125 225.6875 270.0625 M 314.6875 271.0625 L 315.0625 277.4375 L 310.0625 277.4375 C 309.875 273.125 310.75 272.75 314.6875 271.0625 M 330.0625 277.75 C 330.0625 278.75 330.125 279.75 329.9375 280.75 C 329.75 281.9375 327.5 285.3125 326.0625 283.5625 C 323.6875 280.6875 327.6875 277.9375 330.0625 277.75 M 282.375 284.0625 C 284.75 286.5625 286.8125 289.1875 289.6875 291.0625 C 298.625 296.8125 309.6875 296.25 319.375 292.6875 C 324.3125 290.8125 326 287.4375 329.8125 284.1875 C 330.875 283.3125 333.25 282.0625 334.625 282.8125 C 336.4375 283.8125 336 286.1875 335.4375 287.75 C 334.0625 291.8125 331.0625 295 327.375 297.125 C 316.6875 303.25 302.375 303.75 291.375 298.1875 C 285.625 295.25 279.6875 291.1875 282.375 284.0625 M 245 285.6875 C 242.1875 285.5625 237.1875 288.375 234.75 289.6875 C 234 290.0625 232.375 291.625 234.125 291.9375 C 235.1875 292.125 236.4375 291.375 237.375 291 C 239.8125 289.9375 243.625 289.1875 245.625 287.4375 C 246.375 286.75 246.125 285.75 245 285.6875 M 292.375 320.75 L 297.0625 326.375 C 290 331.375 291.375 339.125 293.375 346.0625 L 284.6875 352.375 L 289.9375 329.75 L 292.375 320.75 M 246.0625 358.0625 L 245.6875 358.375 L 246.0625 358.0625 M 325.375 360.0625 C 326.25 364.4375 328.125 367.8125 325.375 371.75 C 323.4375 369 322.8125 363.375 322.375 360.0625 L 325.375 360.0625 z M 291.0625 208.4375 C 291.8125 208.375 292.75 208.4375 293.1875 207.625 C 293.625 206.6875 293.125 205.375 293.0625 204.4375 C 292.8125 201.8125 293.25 196.375 291.625 194.25 C 289.4375 191.3125 289.6875 198 289.75 198.75 C 289.875 200.0625 290 201.4375 290.1875 202.75 C 290.4375 204.625 290.6875 206.5 291.0625 208.4375 z " />
</svg>
