<?xml version="1.0" encoding="UTF-8"?>
<svg width="73.549mm" height="86.049mm" version="1.1" viewBox="0 0 73.549 86.049" xmlns="http://www.w3.org/2000/svg">
 <defs>
  <filter id="a">
   <feGaussianBlur stdDeviation="1.2218248"/>
  </filter>
  <linearGradient id="g" x1="41.195" x2="118.93" y1="616.48" y2="527.56" gradientTransform="matrix(1.2056,0,0,-1.1417,9.92,729.86)" gradientUnits="userSpaceOnUse">
   <stop stop-color="#b00" offset="0"/>
   <stop stop-color="#5f0000" offset="1"/>
  </linearGradient>
  <linearGradient id="h" x1="530.81" x2="174.81" y1="486.63" y2="211.23" gradientTransform="matrix(.254 0 0 .254 3.09 2.59)" gradientUnits="userSpaceOnUse">
   <stop stop-color="#9a0000" offset="0"/>
   <stop stop-color="#f22803" offset="1"/>
  </linearGradient>
  <linearGradient id="i" x1="187.87" x2="581.84" y1="224.6" y2="483.1" gradientTransform="matrix(.254 0 0 .254 3.09 2.59)" gradientUnits="userSpaceOnUse">
   <stop stop-color="#ec6c60" offset="0"/>
   <stop stop-color="#d11412" offset="1"/>
  </linearGradient>
  <linearGradient id="j" x1="250.4" x2="412.09" y1="101.54" y2="264.54" gradientTransform="matrix(.254 0 0 .254 3.09 2.59)" gradientUnits="userSpaceOnUse">
   <stop stop-color="#ffd9d9" offset="0"/>
   <stop stop-color="#ff2727" offset="1"/>
  </linearGradient>
  <radialGradient id="k" cx="295.47" cy="186.1" r="179.55" gradientTransform="matrix(0 .40514 -.23191 -5.7308e-6 122.44 -64.82)" gradientUnits="userSpaceOnUse">
   <stop stop-color="#fff" offset="0"/>
   <stop stop-color="#fff" offset=".5"/>
   <stop stop-color="#d5d5d5" offset="1"/>
  </radialGradient>
 </defs>
 <g stroke="#000" stroke-linecap="round" stroke-linejoin="round">
  <path transform="matrix(.24946 0 0 .24949 -18.53 -4.58)" d="m214.01 71.68c0.96433 6.823 1.7278 13.815 1.4224 20.678 3.8091 3.2987 8.7956 6.7166 14.244 10.498 0.49503 0.34397 0.99728 0.69922 1.4987 1.0536 0.12858-0.92477 0.22581-1.856 0.39216-2.7743 1.1267-6.2228 1.8282-11.915 1.9584-17.898-7.2993-1.0272-11.91-13.779-19.517-11.554zm19.032-18.819c0.70669-5.399 4.4443-11.549 2.9388-16.997-2.815-3.956-6.9633 0.76124-9.7727 0-5.5401-1.4991-4.0976-5.0556-10.088-6.0037-5.1777-0.81924-6.6194-1.2647-5.3593 10.744 0.3777 3.6016 0.63968 7.0493 0.90326 10.468 3.0385-1.0029 6.0046-1.4476 8.5545-1.3034 5.0579 0.28597 9.2737 1.454 12.823 3.0925zm-14.796 262.32c0.0137 11.15-0.46127 21.964-1.8113 32.256 11.034-10.428 11.664-13.586 10.404-31.916-0.12938-1.8737-0.20733-3.7031-0.25876-5.5123-0.0667-2.2861-0.0627-4.5304-0.01-6.7504 0.19447-8.0232 1.1419-15.75 2.7893-24.078 1.0423-5.2618 1.1034-11.457 0.88558-17.76-4.2463-3.0868-9.4256-5.692-14.539-8.5098 0.3986 8.7949 0.86791 17.67 1.3589 26.903 0.55288 10.399 1.0021 20.651 1.1315 30.665 0.0209 1.5708 0.0482 3.1464 0.049 4.702zm-3.7095-108.55c0 0.0612 7e-3 0.12003 7e-3 0.18367 0 9.5376 0.16715 18.664 0.44761 27.675 3.3237 3.0804 7.7958 6.3195 13.109 10.245 0.46128 0.34074 0.92898 0.70001 1.3943 1.0585-0.0763-1.889-0.1334-3.7369-0.1334-5.4841 0-7.2257 0.0337-11.402 2.3626-17.4 1.3742-3.5404 7.4109-11.356-0.18804-12.857-0.85907 1.4306-2.3795 2.063-3.1494 3.5073-1.6289-5.9618 0.85826-14.049 0.34555-20.334-0.0723-0.89335-0.14625-1.773-0.21697-2.6446-0.51351-6.3614-0.87112-12.202 0.17759-18.571 0.0153-0.0918 0.0241-0.18124 0.0394-0.27227 1.0214-5.9795 2.8368-10.744 2.2204-18.012-0.21054-2.4811 2.5081-4.4232 2.1931-7.9-0.401-4.4063-3.4668 0-2.8665-7.9 0.17599-2.3071 1.4152-5.1281 1.4312-7.5842 0.0112-1.5531-0.21778-3.132-0.46127-4.7092-4.1024-3.9343-8.7907-6.6643-12.29-8.8795-1.2914-0.81843-2.635-1.7577-3.9964-2.7687 0.88237 18.561 3.9851 37.532 0.21376 38.477-2.9734-0.55824-2.537-4.6359-5.6743-5.6879-7.251 2.2112-5.5216 5.2505-3.4684 10.428 1.8588 4.6899 0.63083 8.5323 3.47 13.587 2.0259 3.6072 4.4102 8.2165 3.4596 15.85-0.0209 0.17077-0.0177 0.34074-0.0345 0.51152-0.63084 6.3155 1.5678 12.594 1.608 19.482z" filter="url(#a)" stroke-width="3.1817"/>
  <path transform="matrix(.24946 0 0 .24949 -18.53 -4.58)" d="m218.2 310.48c-9.5043 7.1659-20.613 11.497-32.026 14.522 14.12-1.8068 24.415-5.6968 32.075-9.8204-2e-3 -1.5555-0.0289-3.1311-0.049-4.7012zm13.049-184.84c5.0105 4.8067 9.1467 11.413 9.1467 21.141 0 12.646-5.1592 19.149-11.702 25.236-1.0487 6.3686-0.6903 12.209-0.1776 18.571 2.9316-2.813 5.7523-5.3448 8.0964-7.4674 9.7727-8.8473 19.598-23.068 19.86-39.816 0.30296-19.411-13.32-30.965-25.295-39.393-0.50226-0.35364-1.0045-0.71049-1.4995-1.0545-5.4485-3.7804-10.434-7.1991-14.237-10.499-4.1402-3.5935-6.8725-7.0485-7.2012-10.673-0.36966-4.0648 1.7631-8.6032 5.7707-10 0.65495-0.22877 1.3565-0.38344 2.1111-0.42774 3.3519-0.19816 9.6795 9.2525 17.405 11.981 1.7012 0.60094 3.4708 0.88851 5.2918 0.65974 3.4411-0.43177 3.5597-0.64109 3.5597-6.0125 3.4668 0.31577 6.1882 3.6691 6.5281-5.0477 0.19206-4.9299-3.7055-14.363-15.863-19.974-3.5496-1.6385-7.7653-2.8073-12.823-3.0933-2.5499-0.14419-5.5152 0.30127-8.5545 1.3034-9.7173 3.2069-20.208 12.288-20.448 27.453-0.20171 12.684 12.499 27.11 23.746 35.467 1.3605 1.011 2.7042 1.9502 3.9964 2.7686 3.4981 2.2152 8.1864 4.9452 12.289 8.8795zm-1.0013 135.78c18.593 12.646 7.2618 29.396-3.6741 41.837-0.053 2.2201-0.0571 4.4643 0.01 6.7504 3.8123-2.7098 6.6298-5.1772 8.7706-6.8117 6.6194-5.0564 17.258-16.578 15.761-27.175-2.2831-16.267-12.448-23.328-23.013-31.283-5.3119-3.9254-9.7848-7.1645-13.109-10.245-4.17-3.8666-6.5294-7.4803-6.4369-11.876 0.11331-5.3287 2.5185-10.776 5.9821-15.983-0.0402-6.8882-2.2389-13.167-1.6096-19.481-10.505 11.253-19.318 23.347-18.874 38.308 0.43235 14.576 10.866 21.502 21.654 27.449 5.1134 2.817 10.293 5.4229 14.539 8.5098z" filter="url(#a)" stroke-width="3.1817"/>
  <path d="m33.97 12.24c0.24055 1.7023 0.431 3.4467 0.35482 5.1591 0.95021 0.823 2.1941 1.6757 3.5533 2.6191 0.12349 0.0858 0.24878 0.17445 0.37387 0.26287 0.0321-0.23072 0.0563-0.46304 0.0978-0.69216 0.28105-1.5525 0.45606-2.9726 0.48853-4.4655-1.8208-0.25627-2.9711-3.4378-4.8685-2.8826zm4.7476-4.6952c0.17629-1.347 1.1087-2.8813 0.73311-4.2406-0.70223-0.98699-1.737 0.18992-2.4379 0-1.382-0.37402-1.0222-1.2613-2.5164-1.4979-1.2916-0.20439-1.6512-0.31553-1.3369 2.6804 0.0942 0.89856 0.15957 1.7587 0.22532 2.6117 0.75797-0.25021 1.4979-0.36115 2.134-0.32518 1.2617 0.0713 2.3134 0.36277 3.1988 0.77155zm-3.691 65.447c3e-3 2.7819-0.11507 5.4798-0.45185 8.0477 2.7524-2.6016 2.9098-3.3897 2.5954-7.9627-0.0323-0.46747-0.0517-0.92389-0.0645-1.3753-0.0166-0.57037-0.0156-1.1303-2e-3 -1.6842 0.0485-2.0017 0.28486-3.9295 0.69582-6.0074 0.26-1.3128 0.27523-2.8585 0.22091-4.4309-1.0593-0.77014-2.3513-1.4201-3.6268-2.1231 0.0994 2.1943 0.2165 4.4084 0.33899 6.712 0.13791 2.5944 0.24998 5.1522 0.28225 7.6508 5e-3 0.3919 0.012 0.78501 0.0122 1.1731zm-0.92535-27.081c0 0.0153 2e-3 0.0299 2e-3 0.0458 0 2.3796 0.0417 4.6564 0.11166 6.9048 0.82913 0.76853 1.9447 1.5767 3.27 2.556 0.11507 0.08501 0.23174 0.17464 0.34781 0.26408-0.019-0.47129-0.0333-0.93233-0.0333-1.3682 0-1.8028 8e-3 -2.8446 0.58936-4.3411 0.3428-0.88329 1.8487-2.8332-0.0469-3.2078-0.2143 0.35693-0.59358 0.5147-0.78563 0.87505-0.40634-1.4874 0.2141-3.5052 0.0862-5.0732-0.018-0.22288-0.0365-0.44234-0.0541-0.6598-0.1281-1.5871-0.21731-3.0442 0.0443-4.6333 4e-3 -0.0229 6e-3 -0.0452 0.01-0.0679 0.25479-1.4918 0.70765-2.6806 0.55389-4.4938-0.0525-0.61901 0.62565-1.1036 0.54707-1.971-0.10003-1.0993-0.86481 0-0.71506-1.971 0.0439-0.57559 0.35302-1.2794 0.35703-1.8922 3e-3 -0.38748-0.0543-0.7814-0.11507-1.1749-1.0234-0.98157-2.1929-1.6627-3.0657-2.2154-0.32214-0.20419-0.65733-0.43853-0.99691-0.69076 0.22011 4.6307 0.99411 9.3639 0.0533 9.5996-0.74172-0.13928-0.63287-1.1566-1.4155-1.4191-1.8088 0.55168-1.3774 1.31-0.86521 2.6016 0.46368 1.1701 0.15736 2.1287 0.86561 3.3899 0.50538 0.89997 1.1002 2.05 0.86301 3.9544-5e-3 0.0426-4e-3 0.085-9e-3 0.12762-0.15736 1.5757 0.39111 3.1421 0.40113 4.8606z" fill="#9b9de2" stroke-width=".79375"/>
  <path d="m35.01 71.817c-2.3709 1.7878-5.142 2.8684-7.989 3.623 3.5224-0.45079 6.0906-1.4213 8.0012-2.4501-2.7e-4 -0.38809-7e-3 -0.7812-0.0122-1.1729zm3.2552-46.117c1.2499 1.1992 2.2817 2.8474 2.2817 5.2744 0 3.1551-1.287 4.7774-2.9192 6.2962-0.26161 1.5889-0.1722 3.046-0.0443 4.6333 0.7313-0.70181 1.4349-1.3335 2.0197-1.863 2.4379-2.2073 4.8888-5.7554 4.9543-9.9339 0.0756-4.8429-3.3227-7.7255-6.3101-9.8284-0.12529-0.0882-0.25058-0.17726-0.37407-0.26307-1.3592-0.94319-2.6028-1.7961-3.5515-2.6195-1.0328-0.89656-1.7144-1.7585-1.7964-2.6629-0.0922-1.0141 0.43982-2.1464 1.4395-2.4949 0.16339-0.0571 0.33839-0.0957 0.52663-0.10672 0.83614-0.0494 2.4146 2.3084 4.3419 2.9891 0.42439 0.14992 0.86581 0.22167 1.3201 0.1646 0.8584-0.10773 0.88798-0.15995 0.88798-1.5001 0.86481 0.0788 1.5437 0.91541 1.6285-1.2594 0.0479-1.23-0.92435-3.5834-3.9572-4.9834-0.88546-0.40878-1.9371-0.7004-3.1988-0.77175-0.63608-0.036-1.3758 0.0752-2.134 0.32518-2.424 0.80009-5.0409 3.0657-5.1009 6.8493-0.0503 3.1646 3.118 6.7637 5.9236 8.8488 0.33939 0.25223 0.67456 0.48657 0.99691 0.69076 0.87263 0.55268 2.0422 1.2338 3.0655 2.2154zm-0.24978 33.877c4.638 3.155 1.8115 7.3342-0.91653 10.438-0.0132 0.55389-0.0142 1.1138 2e-3 1.6842 0.95101-0.67608 1.6538-1.2917 2.1879-1.6995 1.6512-1.2615 4.3052-4.1362 3.9317-6.7799-0.56953-4.0584-3.1052-5.8203-5.7407-7.8049-1.3251-0.97935-2.4409-1.7875-3.27-2.556-1.0402-0.96469-1.6288-1.8663-1.6057-2.963 0.0283-1.3295 0.62827-2.6885 1.4923-3.9876-0.01-1.7185-0.55849-3.285-0.40153-4.8604-2.6205 2.8074-4.819 5.8249-4.7084 9.5576 0.10786 3.6365 2.7105 5.3645 5.4018 6.8483 1.2756 0.70281 2.5676 1.353 3.6268 2.1231z" fill="#dad8f8" stroke-width=".79375"/>
 </g>
 <ellipse cx="39.14" cy="10.24" rx=".82592" ry=".87425" stroke-width=".20072"/>
 <ellipse cx="39.14" cy="10.24" rx=".82592" ry=".87425" stroke-width=".20072"/>
 <g stroke-width=".08293">
  <path d="m47.73 47.23-21.575 35.428c-0.41399 0.67672-0.41399 1.5126 0 2.1894 0.40602 0.66874 1.1703 1.0907 1.9983 1.0907h43.15c0.82001 0 1.5843-0.42196 1.9983-1.0907 0.40603-0.67672 0.40603-1.5126 0-2.1894l-21.575-35.428c-0.41399-0.67671-1.1783-1.0986-1.9983-1.0986s-1.5843 0.42194-1.9983 1.0986z" fill-opacity=".17857"/>
  <path d="m46.78 46.59s-21.575 35.428-21.575 35.428c-0.41399 0.67672-0.41399 1.5127 0 2.1894 0.40602 0.66875 1.1703 1.0907 1.9983 1.0907h43.15c0.82001 0 1.5843-0.42195 1.9983-1.0907 0.40602-0.67671 0.40602-1.5126 0-2.1894l-21.575-35.428c-0.41398-0.67671-1.1783-1.0987-1.9983-1.0987s-1.5843 0.42195-1.9983 1.0987z" fill="url(#g)"/>
  <path d="m48.78 47.32c-0.13534 0-0.26272 0.0716-0.33437 0.18311l-21.575 35.428c-0.0716 0.11146-0.0716 0.25476 0 0.36622 0.0717 0.11146 0.19903 0.18311 0.33437 0.18311h43.15c0.13534 0 0.26272-0.07165 0.33438-0.18311 0.0717-0.11146 0.0717-0.25476 0-0.36622l-21.575-35.428c-0.0716-0.11146-0.19903-0.18311-0.33437-0.18311z" fill="url(#h)"/>
 </g>
 <path d="m48.78 47.32c-0.13534 0-0.26273 0.0716-0.33438 0.18311l-21.575 35.428c-0.0716 0.11146-0.0716 0.25476 0 0.36622 0.0717 0.11146 0.19903 0.18311 0.33438 0.18311h43.15c0.13534 0 0.26272-0.07165 0.33437-0.18311 0.0717-0.11146 0.0717-0.25476 0-0.36622l-21.575-35.428c-0.0716-0.11146-0.19903-0.18311-0.33437-0.18311z" fill="none" stroke="url(#i)" stroke-linejoin="round" stroke-width="3.048"/>
 <path d="m48.79 47.96c-0.12818 6e-3 -0.24767 0.0779-0.31596 0.1841l-10.788 17.714-1.5027 2.468c3.66 2.1971 7.9424 3.4632 12.519 3.4632 4.6417 0 8.9819-1.3001 12.676-3.5552l-12.236-20.09c-0.0716-0.11145-0.19803-0.1841-0.33337-0.1841-6e-3 0-0.0136-3.3e-4 -0.0199 0z" fill="url(#j)" stroke-linejoin="round" stroke-width=".8293"/>
 <path d="m47.68 56.768-13.033 21.392c-0.22292 0.37419-0.22292 0.83594 0 1.2022 0.22292 0.37418 0.64487 0.60506 1.0987 0.60506h26.057c0.45379 0 0.87575-0.23088 1.0987-0.60506 0.22292-0.37418 0.22292-0.82797 0-1.2022l-13.025-21.392c-0.22291-0.37418-0.64487-0.60506-1.0987-0.60506s-0.87575 0.23088-1.0987 0.60506z" fill="url(#k)" stroke-width=".08293"/>
 <path d="m48.09 79.208c-0.74667-0.35762-1.3153-1.2175-1.3153-1.989 0-1.4365 1.5011-2.5186 2.9213-2.1059 0.95809 0.27842 1.6093 1.143 1.6013 2.1261-7e-3 0.8351-0.36826 1.4503-1.106 1.8825-0.56474 0.33082-1.5096 0.3696-2.1012 0.08626zm0.16971-5.6722c-0.0933-0.05129-0.31317-0.22989-0.48848-0.39688-0.61256-0.58344-0.6118-0.57831-1.0111-6.8212-0.35496-5.5494-0.35789-5.6357-0.20558-6.0343 0.34264-0.89686 1.1061-1.2896 2.3773-1.2229 0.80804 0.0424 1.4304 0.32617 1.8349 0.8367 0.34552 0.43607 0.42063 0.68259 0.42032 1.3793-3.4e-4 0.75705-0.48395 10.041-0.55269 10.61-0.09 0.74513-0.52505 1.3498-1.1627 1.6161-0.36438 0.15216-0.96563 0.16869-1.212 0.03331z" stroke-width=".08293"/>
</svg>
