<?xml version="1.0" encoding="utf-8"?>
<!-- Svg Vector Icons : http://www.onlinewebfonts.com/icon -->
<!DOCTYPE svg PUBLIC "-//W3C//DTD SVG 1.1//EN" "http://www.w3.org/Graphics/SVG/1.1/DTD/svg11.dtd">
<svg version="1.1" xmlns="http://www.w3.org/2000/svg" xmlns:xlink="http://www.w3.org/1999/xlink" x="0px" y="0px" viewBox="0 0 1000 1000" enable-background="new 0 0 1000 1000" xml:space="preserve">
<metadata> Svg Vector Icons : http://www.onlinewebfonts.com/icon </metadata>
<g><path d="M981.3,476.7L799.9,294.8c-12-12-31.5-12-43.5,0c-12,12-12,31.6,0,43.6l130.4,130.8H113.1l130.4-130.8c12-12,12-31.6,0-43.6c-12-12-31.5-12-43.5,0L18.8,476.7c-6.4,6.4-9.1,14.9-8.7,23.3c-0.4,8.4,2.3,16.9,8.7,23.4l181.3,181.9c12,12,31.5,12,43.5,0c12-12,12-31.6,0-43.6L113.1,530.8h773.7L756.5,661.6c-12,12-12,31.6,0,43.6c12,12,31.5,12,43.5,0l181.3-181.9c6.4-6.4,9.1-14.9,8.7-23.4C990.4,491.6,987.7,483.1,981.3,476.7z"/></g>
</svg>